# xmcd
#
# Track frame offsets: 
#        150
#        53711
#        68286
#        92618
#
# Disc length: 3352 seconds
#
# Revision: 6
# Processed by: cddbd v1.5.2PL0 Copyright (c) Steve Scherf et al.
# Submitted via: ExactAudioCopy v0.99pb4
#
DISCID=240d1604
DTITLE=Emerson, Lake and Palmer - Welcome back my friends, to the show t
DTITLE=hat never ends [CD2]
DYEAR=1974
DGENRE=Progressive Rock
TTITLE0=Piano Improvisations
TTITLE1=Take A Pebble
TTITLE2=Jeremy Bender/The Sheriff
TTITLE3=Karn Evil 9
EXTD=YEAR: 1974 ID3G: 92
EXTT0=
EXTT1=
EXTT2=
EXTT3=
PLAYORDER=
